/* XPM */
static char *_2bdb09613264c8e8419e63bc74184d6znVkq9SZq12bEfqD[] = {
/* columns rows colors chars-per-pixel */
"50 50 203 2 ",
"   c #6C0204",
".  c #750303",
"X  c #7C0202",
"o  c #7E5A14",
"O  c #7B5213",
"+  c #596616",
"@  c #567310",
"#  c #6C6A0F",
"$  c #77650E",
"%  c #60790F",
"&  c #77720F",
"*  c #6A6512",
"=  c #606E12",
"-  c #7E6415",
";  c #786E15",
":  c #657712",
">  c #6B7416",
",  c #647A11",
"<  c #7E7912",
"1  c #777D18",
"2  c #777816",
"3  c #840203",
"4  c #8C0302",
"5  c #940302",
"6  c #9B0302",
"7  c #A40503",
"8  c #AB0603",
"9  c #AE0903",
"0  c #B20703",
"q  c #B40902",
"w  c #BC0A02",
"e  c #993613",
"r  c #BE340E",
"t  c #BB3D0E",
"y  c #AA3812",
"u  c #C40F03",
"i  c #C60E02",
"p  c #C30D02",
"a  c #C90E02",
"s  c #CA0F03",
"d  c #C71003",
"f  c #C51002",
"g  c #C61102",
"h  c #CA1103",
"j  c #CD1203",
"k  c #CD1403",
"l  c #CA1204",
"z  c #CF1304",
"x  c #CC1203",
"c  c #D21503",
"v  c #D51703",
"b  c #D41503",
"n  c #D51604",
"m  c #D31503",
"M  c #D81703",
"N  c #D61903",
"B  c #D51903",
"V  c #D81A02",
"C  c #D91A03",
"Z  c #DB1C03",
"A  c #DA1D02",
"S  c #DD1E03",
"D  c #DE1F02",
"F  c #DC1E04",
"G  c #DB1D02",
"H  c #E01E03",
"J  c #CE2F0C",
"K  c #C02B0C",
"L  c #DF2103",
"P  c #DE2202",
"I  c #DE2102",
"U  c #DD2D08",
"Y  c #CB3F0D",
"T  c #DB330A",
"R  c #D83F0E",
"E  c #D3330C",
"W  c #C23913",
"Q  c #E22602",
"!  c #E12304",
"~  c #E02104",
"^  c #E22403",
"/  c #E82704",
"(  c #E62A03",
")  c #E92D03",
"_  c #EA2E08",
"`  c #E22E0A",
"'  c #F12E02",
"]  c #E43104",
"[  c #EC3303",
"{  c #EE3A03",
"}  c #EA3608",
"|  c #E33B0A",
" . c #E93C09",
".. c #F33404",
"X. c #F93404",
"o. c #F23C04",
"O. c #FA3D05",
"+. c #F33E09",
"@. c #99420F",
"#. c #914C0E",
"$. c #8E5A0F",
"%. c #924F14",
"&. c #9D4A17",
"*. c #815B13",
"=. c #8B5A11",
"-. c #885519",
";. c #945B12",
":. c #9D5816",
">. c #AA420D",
",. c #B7430E",
"<. c #A1570E",
"1. c #B5590F",
"2. c #BB560E",
"3. c #AB4812",
"4. c #AC4313",
"5. c #B54012",
"6. c #B84116",
"7. c #B8451B",
"8. c #BF5714",
"9. c #B15911",
"0. c #9B630F",
"q. c #856216",
"w. c #856B12",
"e. c #8D6A13",
"r. c #8E6E18",
"t. c #8D6114",
"y. c #936312",
"u. c #9D6B11",
"i. c #8C7C14",
"p. c #827615",
"a. c #957414",
"s. c #9D7212",
"d. c #B9630F",
"f. c #A66113",
"g. c #B06610",
"h. c #B26E14",
"j. c #AD7315",
"k. c #A17B10",
"l. c #CD4B0D",
"z. c #D44B0B",
"x. c #CF520D",
"c. c #DA4510",
"v. c #C55013",
"b. c #EF4503",
"n. c #EE400A",
"m. c #E1480C",
"M. c #EF4F09",
"N. c #F24303",
"B. c #FC4204",
"V. c #F54B04",
"C. c #FE4C04",
"Z. c #F44509",
"A. c #FE430A",
"S. c #F74B08",
"D. c #FC4B09",
"F. c #EF510C",
"G. c #F55004",
"H. c #FA5204",
"J. c #F95804",
"K. c #4F8A0A",
"L. c #5C830E",
"P. c #5B880C",
"I. c #5D930B",
"U. c #5E9C0B",
"Y. c #5D8218",
"T. c #5E8112",
"R. c #6C820F",
"E. c #6B8F0F",
"W. c #7B8D0D",
"Q. c #64930B",
"!. c #6D950C",
"~. c #6A9B0C",
"^. c #679D0D",
"/. c #70920E",
"(. c #628312",
"). c #6E8513",
"_. c #628A11",
"`. c #6C8A10",
"'. c #688418",
"]. c #668818",
"[. c #718E17",
"{. c #798F14",
"}. c #708918",
"|. c #7B8115",
" X c #6C9213",
".X c #6C9B11",
"XX c #6E9418",
"oX c #679414",
"OX c #779411",
"+X c #789112",
"@X c #739E11",
"#X c #6CA40A",
"$X c #75AB0B",
"%X c #7BAC0C",
"&X c #7FB20A",
"*X c #70A013",
"=X c #76A811",
"-X c #848312",
";X c #8B8713",
":X c #938010",
">X c #9C8610",
",X c #8FAF09",
"<X c #81B10B",
/* pixels */
"4 5 7 4 X 4 5 5 7 7 8 q q q w w f j z z m m z a w q p p f p w p 0 0 8 6 5 4 5 7 7 4 4 3 . . X 3 .   ",
"5 6 6 4 3 5 5 5 7 8 q p p w w f h v m m v B b s i s h k B v u h f p 9 9 7 6 7 q 9 6 6 4 4 X 4 6 5 X ",
"4 5 7 6 5 6 7 7 8 w w i f h z h h v v m M G B c v n B B P n z n k f w w q 9 q q 9 7 7 6 5 4 5 7 7 4 ",
"4 6 8 7 6 7 8 q w s i i h v C B m v v v F P P B D C ~ D P A M A B c h i w w q w q 7 9 7 4 4 5 6 6 4 ",
"4 5 7 7 7 8 q w p b s h v v C C C G A P P P Q P P ~ ^ ~ Q ! F H G B k f k w q w w 9 0 7 6 4 4 6 6 3 ",
"3 5 7 7 7 8 0 p j b M C C C C Z D I Q P ! Q Q Q I Q ^ P ( Q ! F D F n j f f q w w w q 8 8 4 5 7 6 4 ",
"3 5 8 7 7 0 q p s Z Z D D D H D I ( / ^ Q ( ) ( P ^ ( ^ ) ~ F Q P F B n g f w w g l w 0 7 7 7 7 7 5 ",
"3 6 8 8 7 8 q a m H H / ~ G ^ ^ ^ ( ( ) ) [ [ ( Q ( ) ( ) ! ! ( Q A k k k w p f l l l w w w 9 0 7 4 ",
"4 7 q q 8 w p h v H D ^ ^ H ) ) ( [ ) ) { ....( ( [ [ [ ) P Q Q I I B k h f d p s s a p p p w w 9 6 ",
"3 7 q q q w p h v H C ^ ^ ^ ( ..[ ) ( ) [ o.o.] ( { [ [ ) ( ] [ P ~ G k k h f i z l s a p p p w 0 7 ",
"5 8 q p w i p s v G H D ^ ( ( ) [ [ ) { { ..o.[ ) [ { [ [ ) [ ( ( / G B k k d i z z z s p p p p w 7 ",
"6 7 q p s s s z v D H D ^ ) ) ) [ ..) { o.o.[ ' K E O.[ [ ) _ ( ( ( G G I B j l z m n a a p a s w 0 ",
"6 7 0 p a z b m v ~ ~ C ~ ) ) ) { { [ ..N.o.[ X.@.,.B.{ [ [ ) ) ( ^ ~ I I B v c c M B c a p a a l 0 ",
"8 0 0 q p z b M Z ^ ~ M / [ ..) o.{ N.N.o.o.N.X.*.<.B.{ { o.{ [ [ ) I I ! C v B M F B c z a a a l 0 ",
"0 8 q q p s b n Z ~ D Z ( [ o.o.o.N.o.o.N.V.V...# e.B.o.{ ..{ o.o.) ^ ~ ^ I C D ! D v m b a s a 0 0 ",
"7 8 q q p z b b H ~ D ~ ) ) ..N.N.V.o.o.V.V.C.m.% < Z.N.o.[ { N.o.[ ( ( / ~ D H / H n n b a a p w 0 ",
"8 0 0 q w m j v ~ / D ( ) ) [ o.o.V.N.V.G.G.C.l.P.R.m.C.N.{ { N.o.{ ) ( ( ~ I ~ / ~ v m b s p p w 0 ",
"7 8 8 w i v v C ~ ^ ~ ( ) ( [ O.o.C.N.V.G.G.C.1.Q.E.x.C.N.{ o.N.N.{ [ / ( ( ~ ~ ( ~ v j b a p p 0 q ",
"7 8 0 w i v v C ~ ~ / ( ) ( [ N.N.N.o.C.V.J.C.u.T._.d.C.V.o.N.N.N.o.[ ( [ ) ^ / / ^ Z m s a a p q q ",
"0 q w w i b v v C ( / [ [ ) { N.o.b.{ V.V.J.S.i.w.-Xk.C.S.N.b.b.N.o.{ [ [ ) ~ ^ ^ ^ D j j a a p w w ",
"8 8 w i s v v m H ) ( [ [ [ o.{ o.X.O.B.B.C.F.OX9.s.;XA.S.B.o.O.B.{ { { [ [ / I ^ ^ H j s s m a w 0 ",
"8 8 w h m C v m ^ ) ) [ [ [ [ O.y *.y.y.=.u.r.!.- < [.y.$.=.=.=.o r X.[ [ [ ^ I ^ ^ / M b b b s w 0 ",
"8 0 p s C D v Z ~ ) ) ..[ o.o.o.T > #X!.^.$X@XOX.X&X,X$XU.Q.!.U.- } [ ) [ ) ^ I / / / Z M b M a w 0 ",
"0 p w s M H Z ~ / ) ..[ ..[ o.{ o.c.).!.> t.|.+Xq.w.'.< *.+ ~.; { o.[ ) ) ) I I ^ ^ ^ Z M M M m w q ",
"q w p b M H Z ^ ( ..[ [ [ ) o.{ { C.v.].`.W i.;XA.n.{.j.6._.: c.C.{ [ ) ) ( I G D D Z Z b M M a w 0 ",
"0 w s M H H Z H ~ ..) [ ..) { N.{ G.C.3.^.2 [.j.D.S.>X+X'._.W B.b.o.[ ) ( ( P G D H Z M b M M p w w ",
"0 w s M H Z Z ^ ! ) ) ..O.[ o.N.o.V.H.O.:.$XXX8.J.D.h.*X(.3.O.N.V.N.[ ) ( ) Q P I ~ H M M b b a p p ",
"8 w i M H H Z H Q ) ) [ { [ b.o.b.N.V.N.+.e.&Xa.D.S.p.@X%.O.N.N.N.N.[ ) ^ ) ( ^ ^ / M b M b s a p w ",
"8 w p M Z H M D ~ ) ( ) [ [ [ o.o.N.V.V.B.:.oX$X:.s.=X X2.B.b.o.b.{ [ ) ^ ( ^ ^ ( ~ G v b s b a p 0 ",
"8 q s M M H v C I ( ) ) [ [ [ ..{ V.V.V.{ i.1 i.Y.%Xi.`.0.O.V.N.N.{ [ ( ^ Q P I ^ D B s s s s a p p ",
"8 w a b M Z v v ! / ( _ [ [ { +.o.b.N.C.n.`.g.&.~.XX7.s.& o.N.b.N.{ ) Q P ^ I G D D B h s b a w p w ",
"q w a j m v m v F Q ) [ [ ) ) [ o.V.V.C.z.`.-.W.(.'.-X*., | N.N.V.[ Q Q Q ^ G G D C j s s b a p p p ",
"w w a j j j m h v H ( [ [ ( [ [ { N.N.C.2._.% Q.4.f.^.(.(.Y o.b.N.) ^ ( ^ P P G I B h s k m i w w p ",
"q w a s j m m b B C ^ ( ) ( ( [ { N.N.O.0.Q.P.%.B.Z.q.~.P.y X.V.o.) ) ( ^ I G I ~ k i i f s i p q w ",
"0 0 p a i s s M G P ~ ( [ ( / ( { o.{ O.w.I.O [ N.V. .* K.#...N.o.) ) Q P I G I D v p f i i i w 8 8 ",
"0 0 p p i s j v G G I ^ [ ( Q Q [ { o.{ , * ( o.N.V.O.J @ $ ) o.o.{ ( Q ^ G G C C h w f p p s w q q ",
"0 8 w p a p a M G G B P P Q P Q ( ] ..Y + E ' { { b.{ ..t + ] o.o.[ Q ( ( I B B m s a s i w p w w w ",
"8 0 w p a p p M C B G G I I P ^ Q ( ' y 5.X.( { { o.{ [ X.e K ..[ ) ( P ^ P k z s m s s i i p p w q ",
"8 0 w p p w p b B B G P B P P P ^ ( ) T ..] { { [ [ o.{ ) ( T ) { ) Q P I B h v z m b a p w p w q 8 ",
"7 8 0 p w p p j B B G P B G P Q ^ ( ( ) ( [ { { ) { ..] ( ( [ ( ( Q ^ G G v h h c v j a a p w w 8 8 ",
"7 6 8 p p i p m v C C D D B G ^ Q P Q [ P [ [ ( ) { [ [ ( ( ] Q Q Q I v B h l l v b s s z a p 0 8 8 ",
"5 6 7 q w w p h v m B D C B G ^ P U ( ( P [ ( P ( { ( [ ( ^ ^ P P I G k B B j z s m j s a p w 8 8 8 ",
"5 6 8 0 8 w w p s j v B B k B P P P P P P ] ^ P ( ( [ ( ( P I I I G n k k B l d s j m a p p w 7 7 6 ",
"5 6 7 8 7 p w w s j v v n h z k c P B P P P P G I ( ( Q ^ I P P P P v c l v c l s s m p w p w 8 8 6 ",
"5 6 6 8 q w q p u u k z B h f h g k c k P P P B B P Q P P P G B B G k k l j j s p p z p 0 p w 0 9 5 ",
"4 6 7 6 7 q w p w w p l k k h f g c c P k k n B B P P P P B B k B B h f l l u w w p p q 8 8 7 8 6 4 ",
"X 3 6 6 6 8 q w w q w d k f h f w c k B l k B k A A B B P k f B k k g f u u p q 0 w q 7 7 7 6 6 5 X ",
"X 4 6 6 5 7 q 0 8 7 q p i p f w w w l l l f g k k k f f h f p K w f f f p p w w 0 q 0 8 7 7 7 4 4 . ",
"3 3 5 6 4 6 8 8 7 5 7 w p p w q w w w g g w g g g g w q w w 9 w w q q w w w q 9 9 7 7 7 7 6 5 4 3 . ",
"X 3 6 6 3 4 5 7 5 5 7 q w q 7 8 q 9 w w w w w q q w w 9 9 w w w w w q 9 q q 7 7 9 7 6 6 6 4 5 3 3 . "
};
